<svg xmlns="http://www.w3.org/2000/svg" width="245.219" height="57.577" viewBox="0 0 245.219 57.577">
  <g id="Group_30826" data-name="Group 30826" transform="translate(6043.219 -5424.986)">
    <path id="Path_27161" data-name="Path 27161" d="M121.386,26.083a3.191,3.191,0,0,1-5.292-.009h0l-1.853-2.742a7.943,7.943,0,0,0-13.162,8.9L112.113,48.55a7.922,7.922,0,0,0,5.925,3.462,7.944,7.944,0,0,1-5.81-12.35L118.749,30l2.628-3.9.014-.018h0" transform="translate(-6097.204 5414.248)" fill="#92c83e"/>
    <path id="Path_27162" data-name="Path 27162" d="M147.43,21.185h0A7.946,7.946,0,0,0,136.4,23.327l-1.853,2.747-.014.018-2.628,3.9-6.521,9.667a7.943,7.943,0,1,0,13.171,8.883L149.572,32.21a7.946,7.946,0,0,0-2.142-11.029" transform="translate(-6110.366 5414.253)" fill="#005c75"/>
    <path id="Path_27163" data-name="Path 27163" d="M4.788,0h.477a4.788,4.788,0,0,1,4.788,4.788V31.712H25.489a4.788,4.788,0,0,1,0,9.576H4.788A4.788,4.788,0,0,1,0,36.5V4.788A4.785,4.785,0,0,1,4.788,0" transform="translate(-6043.219 5424.986)" fill="#005c75"/>
    <path id="Path_27164" data-name="Path 27164" d="M77.417,27.04h0a4.578,4.578,0,0,1,4.577,4.577V51.346a4.577,4.577,0,1,1-9.154,0V31.617a4.578,4.578,0,0,1,4.577-4.577" transform="translate(-6082.654 5410.347)" fill="#005c75"/>
    <path id="Path_27165" data-name="Path 27165" d="M189.53,27.249V5.048a4.788,4.788,0,0,1,9.576,0V27.006a5.467,5.467,0,0,0,2.632,5.054,4.683,4.683,0,0,1,2.394,4.146v.326a4.772,4.772,0,0,1-6.907,4.293c-4.724-2.444-7.691-7.452-7.691-13.575" transform="translate(-6145.83 5424.846)" fill="#005c75"/>
    <path id="Path_27166" data-name="Path 27166" d="M224.28,35.223a16.753,16.753,0,1,1,16.812,16.753A16.765,16.765,0,0,1,224.28,35.223m23.934,0a7.1,7.1,0,0,0-7.122-7.122,7.152,7.152,0,1,0,0,14.3,7.076,7.076,0,0,0,7.122-7.182" transform="translate(-6164.644 5414.954)" fill="#005c75"/>
    <path id="Path_27167" data-name="Path 27167" d="M304.24,34.925a16.247,16.247,0,1,1,32.492,0V46.532a4.788,4.788,0,1,1-9.576,0V34.925c0-4.247-2.692-6.819-6.641-6.819s-6.7,2.632-6.7,6.819V46.532a4.788,4.788,0,1,1-9.576,0Z" transform="translate(-6207.934 5414.954)" fill="#005c75"/>
    <g id="Group_30807" data-name="Group 30807" transform="translate(-5826.415 5433.457)">
      <path id="Path_27168" data-name="Path 27168" d="M473.016,21.644c.174-1.454,1.2-3.174,4-3.174,2.637,0,3.816,1.527,3.816,3.16a2.47,2.47,0,0,1-1.5,2.412v.05a2.852,2.852,0,0,1,1.977,2.894c0,1.811-1.078,3.719-4.315,3.719-3.008,0-4.109-1.839-4.247-3.4h2.178a2,2,0,0,0,2.142,1.66,1.86,1.86,0,0,0,1.986-2c0-1.257-.7-1.935-2.146-1.935h-.991V23.281h.858c1.3,0,1.848-.463,1.848-1.536,0-.9-.559-1.509-1.678-1.509a1.613,1.613,0,0,0-1.8,1.408h-2.128Z" transform="translate(-472.75 -18.47)" fill="#005c75"/>
      <path id="Path_27169" data-name="Path 27169" d="M500.449,21.461a1.534,1.534,0,0,0-1.674-1.261c-1.72,0-2.21,1.614-2.279,3.508a3.212,3.212,0,0,1,2.784-1.279,3.612,3.612,0,0,1,3.669,3.921,4.052,4.052,0,0,1-4.215,4.361c-3.366,0-4.444-2.637-4.444-5.966,0-3.132,1.078-6.264,4.581-6.264,2.509,0,3.614,1.591,3.747,2.985h-2.169Zm.257,5.068c0-1.188-.449-2.334-2-2.334-1.252,0-2.05.761-2.05,2.27a2.189,2.189,0,0,0,2.036,2.444c1.408,0,2.013-1.091,2.013-2.38" transform="translate(-484.412 -18.475)" fill="#005c75"/>
      <path id="Path_27170" data-name="Path 27170" d="M524.036,20.788h-4.8c-.087.738-.321,2.1-.413,2.628a3.151,3.151,0,0,1,2.243-.738c2.27,0,3.614,1.619,3.614,3.926s-1.234,4.357-4.311,4.357c-2.256,0-3.907-1.188-4.187-3.261h2.233a1.915,1.915,0,0,0,2,1.518c1.348,0,2-.981,2-2.435,0-1.335-.514-2.307-1.967-2.307a1.891,1.891,0,0,0-2.022,1.3l-2.027-.289c.326-1.518.816-4.976,1-6.549h6.943l-.316,1.848Z" transform="translate(-496.263 -18.724)" fill="#005c75"/>
    </g>
    <path id="Path_27171" data-name="Path 27171" d="M413.561,19.739a13.6,13.6,0,0,0-3.825,2.949,16.425,16.425,0,0,0-10.676-4.15,16.725,16.725,0,1,0-.248,33.446,10.619,10.619,0,0,0,5.453-1.481,1.1,1.1,0,0,1,1.669.94,6.374,6.374,0,0,1-4.187,6.136c-.078.032-.151.064-.229.1a7.6,7.6,0,0,1-2.357.358,7.918,7.918,0,0,1-2.05-.257A4.777,4.777,0,0,0,394.6,67a17.178,17.178,0,0,0,10.172-.33c.124-.037.243-.069.367-.115A16.077,16.077,0,0,0,415.5,51.144V35.492c0-.482-.023-.963-.064-1.435v-.5a5.467,5.467,0,0,1,2.632-5.054,4.683,4.683,0,0,0,2.394-4.146v-.326a4.772,4.772,0,0,0-6.907-4.293M398.808,42.408a7.152,7.152,0,1,1,0-14.3,7.1,7.1,0,0,1,7.058,6.2v1.839a7.1,7.1,0,0,1-7.058,6.255" transform="translate(-6250.033 5414.951)" fill="#005c75"/>
    <path id="Path_27172" data-name="Path 27172" d="M80.355,9.756a1.76,1.76,0,0,1-1.44-.743L77.434,6.931,75.952,9.013a1.762,1.762,0,0,1-2.871-2.045L76,2.863a1.758,1.758,0,0,1,2.871,0l2.917,4.1A1.761,1.761,0,0,1,80.35,9.751Z" transform="translate(-6082.607 5423.838)" fill="#005c75"/>
  </g>
</svg>
